<svg xmlns="http://www.w3.org/2000/svg" xmlns:xlink="http://www.w3.org/1999/xlink" width="500" zoomAndPan="magnify" viewBox="0 0 375 374.999991" height="500" preserveAspectRatio="xMidYMid meet" version="1.0"><defs><g/><clipPath id="755f0307c7"><path d="M 97.257812 156.574219 L 315.265625 156.574219 L 315.265625 176.789062 L 97.257812 176.789062 Z M 97.257812 156.574219 " clip-rule="nonzero"/></clipPath><clipPath id="3a8cf34c9c"><path d="M 107.363281 156.574219 L 305.136719 156.574219 C 310.71875 156.574219 315.242188 161.101562 315.242188 166.683594 C 315.242188 172.265625 310.71875 176.789062 305.136719 176.789062 L 107.363281 176.789062 C 101.78125 176.789062 97.257812 172.265625 97.257812 166.683594 C 97.257812 161.101562 101.78125 156.574219 107.363281 156.574219 Z M 107.363281 156.574219 " clip-rule="nonzero"/></clipPath></defs><path stroke-linecap="butt" transform="matrix(0.75, 0, 0, 0.75, 84.389361, 37.43594)" fill="none" stroke-linejoin="miter" d="M 217.543367 66.871876 C 221.241284 66.871876 224.111076 68.153126 226.152742 70.710418 C 228.225659 73.23646 229.262118 76.121877 229.262118 79.371877 C 229.262118 82.793752 227.913159 85.923961 225.220451 88.757294 C 222.522534 91.559378 218.199617 93.11667 212.2517 93.42917 L 162.30378 93.42917 L 150.428779 127.606255 L 161.475655 127.606255 C 164.725655 127.606255 167.267322 128.851047 169.100655 131.34063 C 170.965239 133.793756 171.902739 136.595839 171.902739 139.741673 C 171.902739 143.267715 170.517322 146.554173 167.751697 149.59584 C 164.986072 152.637507 160.350655 154.163549 153.850654 154.163549 L 141.090237 154.163549 C 138.397528 161.528132 135.45482 169.6323 132.277736 178.486467 C 129.095444 187.335426 126.225653 195.51251 123.668361 203.017719 C 119.689194 214.361469 114.76211 223.210428 108.881901 229.575012 C 103.006901 235.934387 96.590234 240.429179 89.642317 243.059388 C 82.72565 245.684388 75.585024 247.002096 68.22044 247.002096 C 59.022523 247.002096 50.777731 245.064596 43.480855 241.189596 C 36.18398 237.283346 30.480855 232.252095 26.366271 226.095845 C 22.251687 219.908345 20.194396 213.496886 20.194396 206.85626 C 20.194396 200.04376 21.960021 195.085426 25.486063 191.970843 C 29.048563 188.861468 32.954813 187.304176 37.204813 187.304176 C 41.319397 187.304176 45.178772 188.684384 48.772522 191.450009 C 52.402731 194.220843 54.220439 198.07501 54.220439 203.017719 C 54.220439 204.434385 53.991273 205.923969 53.543356 207.48126 C 54.548565 210.038552 56.308981 212.387511 58.835023 214.533344 C 61.392315 216.642719 64.590232 217.694803 68.428774 217.694803 C 72.126691 217.694803 75.569399 217.090636 78.751691 215.882303 C 81.933983 214.668761 84.855858 212.371886 87.517317 208.981261 C 90.215234 205.595844 92.772525 200.564593 95.194401 193.88751 L 109.454818 154.366674 L 107.329818 154.366674 C 102.210026 154.366674 98.371484 153.017715 95.814192 150.325007 C 93.28815 147.62709 92.027734 144.653131 92.027734 141.403131 C 92.027734 138.012506 93.4444 134.866672 96.282942 131.960422 C 99.116276 129.05938 103.350651 127.606255 108.986068 127.606255 L 118.788152 127.606255 L 131.756903 93.42917 L 118.996485 93.42917 C 115.157943 93.42917 112.131902 92.111461 109.923568 89.486461 C 107.741276 86.856253 106.652735 83.986461 106.652735 80.877085 C 106.652735 77.48646 108.001693 74.304168 110.69961 71.33021 C 113.397527 68.356251 117.788152 66.871876 123.871486 66.871876 Z M 217.543367 66.871876 " stroke="#ffffff" stroke-width="15.933075" stroke-opacity="1" stroke-miterlimit="4"/><g fill="#545454" fill-opacity="1"><g transform="translate(100.819047, 222.685928)"><g><path d="M 146.734375 -135.109375 C 149.503906 -135.109375 151.65625 -134.148438 153.1875 -132.234375 C 154.726562 -130.328125 155.5 -128.148438 155.5 -125.703125 C 155.5 -123.160156 154.488281 -120.828125 152.46875 -118.703125 C 150.457031 -116.578125 147.222656 -115.40625 142.765625 -115.1875 L 105.3125 -115.1875 L 96.390625 -89.546875 L 104.671875 -89.546875 C 107.117188 -89.546875 109.03125 -88.613281 110.40625 -86.75 C 111.789062 -84.894531 112.484375 -82.796875 112.484375 -80.453125 C 112.484375 -77.804688 111.445312 -75.335938 109.375 -73.046875 C 107.300781 -70.765625 103.820312 -69.625 98.9375 -69.625 L 89.390625 -69.625 C 87.367188 -64.101562 85.160156 -58.019531 82.765625 -51.375 C 80.378906 -44.738281 78.226562 -38.609375 76.3125 -32.984375 C 73.34375 -24.484375 69.648438 -17.84375 65.234375 -13.0625 C 60.828125 -8.28125 56.019531 -4.90625 50.8125 -2.9375 C 45.613281 -0.976562 40.253906 0 34.734375 0 C 27.828125 0 21.640625 -1.457031 16.171875 -4.375 C 10.703125 -7.300781 6.425781 -11.070312 3.34375 -15.6875 C 0.257812 -20.3125 -1.28125 -25.117188 -1.28125 -30.109375 C -1.28125 -35.210938 0.046875 -38.929688 2.703125 -41.265625 C 5.359375 -43.597656 8.28125 -44.765625 11.46875 -44.765625 C 14.550781 -44.765625 17.445312 -43.726562 20.15625 -41.65625 C 22.863281 -39.59375 24.21875 -36.703125 24.21875 -32.984375 C 24.21875 -31.921875 24.054688 -30.804688 23.734375 -29.640625 C 24.484375 -27.722656 25.8125 -25.96875 27.71875 -24.375 C 29.632812 -22.78125 32.023438 -21.984375 34.890625 -21.984375 C 37.648438 -21.984375 40.222656 -22.4375 42.609375 -23.34375 C 45.003906 -24.25 47.210938 -25.972656 49.234375 -28.515625 C 51.253906 -31.066406 53.164062 -34.835938 54.96875 -39.828125 L 65.640625 -69.46875 L 64.046875 -69.46875 C 60.222656 -69.46875 57.351562 -70.472656 55.4375 -72.484375 C 53.53125 -74.503906 52.578125 -76.738281 52.578125 -79.1875 C 52.578125 -81.738281 53.640625 -84.101562 55.765625 -86.28125 C 57.890625 -88.457031 61.078125 -89.546875 65.328125 -89.546875 L 72.65625 -89.546875 L 82.375 -115.1875 L 72.8125 -115.1875 C 69.945312 -115.1875 67.691406 -116.171875 66.046875 -118.140625 C 64.398438 -120.109375 63.578125 -122.257812 63.578125 -124.59375 C 63.578125 -127.144531 64.582031 -129.535156 66.59375 -131.765625 C 68.613281 -133.992188 71.910156 -135.109375 76.484375 -135.109375 Z M 146.734375 -135.109375 "/></g></g></g><path stroke-linecap="butt" transform="matrix(0.75, 0, 0, 0.75, 111.3976, 60.950283)" fill="none" stroke-linejoin="miter" d="M 125.126124 162.279841 C 125.126124 165.399633 124.115708 168.613175 122.100083 171.915259 C 120.079249 175.217342 117.433416 178.415259 114.162582 181.503801 C 110.891748 184.592343 107.219873 187.514218 103.152165 190.264218 C 99.084456 193.019427 94.985497 195.451719 90.855289 197.561094 C 86.730289 199.670469 82.766747 201.352761 78.97508 202.607969 C 75.183413 203.857969 71.975079 204.519427 69.344871 204.576719 C 66.834454 204.701719 64.141745 204.488177 61.266745 203.936094 C 58.391745 203.384011 55.65737 202.696511 53.058411 201.873594 C 50.459453 201.045469 48.131328 200.160052 46.084453 199.212135 C 44.037577 198.264219 42.641744 197.420469 41.907369 196.686094 C 41.480286 196.19651 41.131327 195.66526 40.855286 195.081927 C 40.579244 194.498594 40.443827 193.857968 40.443827 193.154843 C 40.443827 192.451718 40.641744 191.717343 41.037577 190.951718 C 41.433411 190.191302 42.094869 189.410052 43.011536 188.613176 C 43.865702 187.941301 44.938619 187.087135 46.219869 186.045468 C 47.324036 185.191301 48.730286 184.071509 50.443828 182.696509 C 52.15737 181.321509 54.266745 179.654843 56.771953 177.696509 C 55.855286 178.613176 55.271953 179.467343 55.03237 180.264218 C 54.787578 181.061093 54.693828 181.795468 54.756328 182.467343 C 54.81362 183.201718 55.058411 183.873593 55.490703 184.482968 C 56.100078 185.279843 57.172995 186.16526 58.699037 187.144426 C 60.230287 188.123593 62.079245 189.024635 64.25112 189.85276 C 66.422996 190.680885 68.870912 191.368385 71.589663 191.91526 C 74.313621 192.467343 77.141746 192.743385 80.079246 192.743385 C 83.683413 192.743385 87.261539 192.389218 90.813622 191.686093 C 94.360497 190.982968 97.553206 189.805885 100.396956 188.154843 C 103.245915 186.503801 105.537581 184.316301 107.282373 181.597551 C 109.021957 178.873592 109.896957 175.493384 109.896957 171.456925 C 109.896957 167.727758 109.021957 164.436092 107.282373 161.592341 C 105.537581 158.748591 103.256331 156.196508 100.443831 153.930883 C 97.631331 151.670466 94.407372 149.607966 90.766747 147.738174 C 87.126122 145.87359 83.428205 144.024632 79.66258 142.191298 C 75.902163 140.352757 72.204246 138.488173 68.563621 136.59234 C 64.922995 134.696506 61.699037 132.571506 58.881328 130.217339 C 56.068828 127.863172 53.792786 125.201714 52.047995 122.232964 C 50.303203 119.269422 49.433411 115.826713 49.433411 111.915255 C 49.433411 108.11838 50.365703 104.404838 52.230286 100.764212 C 54.09487 97.123587 56.558412 93.701712 59.615703 90.48817 C 62.672995 87.279836 66.178204 84.295461 70.120912 81.545461 C 74.068829 78.790253 78.120913 76.420461 82.277163 74.436086 C 86.438622 72.446502 90.521955 70.884002 94.527164 69.753794 C 98.532373 68.623585 102.157373 68.024627 105.396956 67.967335 C 108.516748 67.904835 111.516748 68.040252 114.391749 68.378794 C 117.266749 68.712127 119.683416 69.217335 121.636541 69.894419 C 123.594874 70.566294 124.943833 71.404835 125.678208 72.415252 C 126.407374 73.425669 126.225083 74.571502 125.126124 75.857961 C 124.209458 76.894419 123.074041 77.998586 121.730291 79.160044 C 120.506332 80.196503 119.006332 81.357961 117.235499 82.644419 C 115.459457 83.930878 113.287582 85.305878 110.719873 86.774628 C 111.209457 86.040253 111.485498 85.384003 111.547998 84.80067 C 111.60529 84.222545 111.579248 83.748586 111.454248 83.378795 C 111.271957 82.951711 111.027165 82.581919 110.719873 82.279836 C 110.29279 81.910044 109.54279 81.514211 108.475082 81.087128 C 107.402165 80.654836 106.07404 80.227753 104.48029 79.800669 C 102.891748 79.373586 101.089664 79.019419 99.068831 78.743378 C 97.047998 78.472544 94.907372 78.331919 92.646956 78.331919 C 88.97508 78.331919 85.44383 78.774628 82.047997 79.665253 C 78.657371 80.550669 75.657371 81.910044 73.058413 83.748586 C 70.459454 85.58192 68.381329 87.904837 66.818829 90.717337 C 65.261537 93.535045 64.480287 96.837129 64.480287 100.628796 C 64.480287 104.785046 65.350079 108.425671 67.094871 111.545463 C 68.839662 114.665255 71.131329 117.43088 73.975079 119.847547 C 76.81883 122.264214 80.063621 124.451714 83.699038 126.410047 C 87.339664 128.368381 91.042789 130.248589 94.803206 132.050673 C 98.563623 133.857965 102.266748 135.706923 105.902165 137.602756 C 109.54279 139.49859 112.787582 141.607965 115.631332 143.930882 C 118.475082 146.259007 120.766749 148.904841 122.511541 151.868382 C 124.256333 154.837133 125.126124 158.305883 125.126124 162.279841 Z M 125.126124 162.279841 " stroke="#ffffff" stroke-width="14.092575" stroke-opacity="1" stroke-miterlimit="4"/><g fill="#0cc0df" fill-opacity="1"><g transform="translate(139.733536, 211.700273)"><g><path d="M 65.5 -29.03125 C 65.5 -26.695312 64.742188 -24.289062 63.234375 -21.8125 C 61.722656 -19.332031 59.738281 -16.929688 57.28125 -14.609375 C 54.832031 -12.296875 52.082031 -10.109375 49.03125 -8.046875 C 45.976562 -5.984375 42.898438 -4.160156 39.796875 -2.578125 C 36.703125 -0.992188 33.734375 0.265625 30.890625 1.203125 C 28.046875 2.140625 25.640625 2.632812 23.671875 2.6875 C 21.785156 2.78125 19.765625 2.617188 17.609375 2.203125 C 15.453125 1.785156 13.398438 1.265625 11.453125 0.640625 C 9.503906 0.0234375 7.757812 -0.632812 6.21875 -1.34375 C 4.6875 -2.050781 3.644531 -2.679688 3.09375 -3.234375 C 2.769531 -3.597656 2.503906 -4 2.296875 -4.4375 C 2.097656 -4.875 2 -5.351562 2 -5.875 C 2 -6.40625 2.144531 -6.957031 2.4375 -7.53125 C 2.738281 -8.101562 3.234375 -8.691406 3.921875 -9.296875 C 4.566406 -9.796875 5.367188 -10.4375 6.328125 -11.21875 C 7.148438 -11.851562 8.203125 -12.6875 9.484375 -13.71875 C 10.773438 -14.757812 12.363281 -16.015625 14.25 -17.484375 C 13.5625 -16.796875 13.125 -16.148438 12.9375 -15.546875 C 12.75 -14.953125 12.679688 -14.40625 12.734375 -13.90625 C 12.773438 -13.351562 12.957031 -12.847656 13.28125 -12.390625 C 13.738281 -11.785156 14.539062 -11.117188 15.6875 -10.390625 C 16.832031 -9.660156 18.21875 -8.984375 19.84375 -8.359375 C 21.476562 -7.742188 23.316406 -7.226562 25.359375 -6.8125 C 27.398438 -6.394531 29.519531 -6.1875 31.71875 -6.1875 C 34.425781 -6.1875 37.109375 -6.453125 39.765625 -6.984375 C 42.429688 -7.515625 44.828125 -8.394531 46.953125 -9.625 C 49.085938 -10.863281 50.804688 -12.503906 52.109375 -14.546875 C 53.421875 -16.585938 54.078125 -19.125 54.078125 -22.15625 C 54.078125 -24.957031 53.421875 -27.421875 52.109375 -29.546875 C 50.804688 -31.679688 49.097656 -33.597656 46.984375 -35.296875 C 44.878906 -36.992188 42.460938 -38.539062 39.734375 -39.9375 C 37.003906 -41.34375 34.226562 -42.734375 31.40625 -44.109375 C 28.59375 -45.484375 25.816406 -46.878906 23.078125 -48.296875 C 20.347656 -49.722656 17.925781 -51.316406 15.8125 -53.078125 C 13.707031 -54.847656 12 -56.84375 10.6875 -59.0625 C 9.382812 -61.289062 8.734375 -63.875 8.734375 -66.8125 C 8.734375 -69.65625 9.429688 -72.441406 10.828125 -75.171875 C 12.234375 -77.898438 14.082031 -80.46875 16.375 -82.875 C 18.664062 -85.289062 21.289062 -87.53125 24.25 -89.59375 C 27.207031 -91.65625 30.242188 -93.429688 33.359375 -94.921875 C 36.484375 -96.410156 39.546875 -97.578125 42.546875 -98.421875 C 45.554688 -99.273438 48.28125 -99.726562 50.71875 -99.78125 C 53.050781 -99.820312 55.296875 -99.710938 57.453125 -99.453125 C 59.609375 -99.203125 61.421875 -98.828125 62.890625 -98.328125 C 64.359375 -97.828125 65.367188 -97.195312 65.921875 -96.4375 C 66.472656 -95.675781 66.332031 -94.816406 65.5 -93.859375 C 64.8125 -93.078125 63.960938 -92.25 62.953125 -91.375 C 62.035156 -90.59375 60.910156 -89.71875 59.578125 -88.75 C 58.253906 -87.789062 56.628906 -86.765625 54.703125 -85.671875 C 55.066406 -86.222656 55.269531 -86.710938 55.3125 -87.140625 C 55.363281 -87.578125 55.34375 -87.9375 55.25 -88.21875 C 55.113281 -88.539062 54.929688 -88.816406 54.703125 -89.046875 C 54.378906 -89.316406 53.816406 -89.613281 53.015625 -89.9375 C 52.210938 -90.257812 51.210938 -90.578125 50.015625 -90.890625 C 48.828125 -91.210938 47.472656 -91.476562 45.953125 -91.6875 C 44.441406 -91.894531 42.835938 -92 41.140625 -92 C 38.390625 -92 35.738281 -91.664062 33.1875 -91 C 30.644531 -90.332031 28.398438 -89.3125 26.453125 -87.9375 C 24.503906 -86.5625 22.945312 -84.816406 21.78125 -82.703125 C 20.613281 -80.597656 20.03125 -78.125 20.03125 -75.28125 C 20.03125 -72.15625 20.679688 -69.421875 21.984375 -67.078125 C 23.296875 -64.742188 25.015625 -62.671875 27.140625 -60.859375 C 29.273438 -59.046875 31.707031 -57.40625 34.4375 -55.9375 C 37.164062 -54.46875 39.941406 -53.054688 42.765625 -51.703125 C 45.585938 -50.359375 48.363281 -48.972656 51.09375 -47.546875 C 53.820312 -46.128906 56.25 -44.546875 58.375 -42.796875 C 60.507812 -41.054688 62.226562 -39.070312 63.53125 -36.84375 C 64.84375 -34.625 65.5 -32.019531 65.5 -29.03125 Z M 65.5 -29.03125 "/></g></g></g><g clip-path="url(#755f0307c7)"><g clip-path="url(#3a8cf34c9c)"><path fill="#ffffff" d="M 97.257812 156.574219 L 315.265625 156.574219 L 315.265625 176.789062 L 97.257812 176.789062 Z M 97.257812 156.574219 " fill-opacity="1" fill-rule="nonzero"/></g></g><g fill="#0cc0df" fill-opacity="1"><g transform="translate(125.491637, 172.788166)"><g><path d="M 7.359375 -6.5625 C 7.316406 -6.53125 7.242188 -6.484375 7.140625 -6.421875 C 7.046875 -6.359375 6.910156 -6.269531 6.734375 -6.15625 C 6.566406 -6.039062 6.34375 -5.882812 6.0625 -5.6875 C 6.113281 -5.78125 6.113281 -5.847656 6.0625 -5.890625 C 6.007812 -5.941406 5.945312 -5.972656 5.875 -5.984375 C 5.769531 -6.015625 5.648438 -6.023438 5.515625 -6.015625 C 5.316406 -5.992188 5.046875 -5.972656 4.703125 -5.953125 C 4.367188 -5.929688 3.992188 -5.910156 3.578125 -5.890625 C 3.566406 -5.035156 3.554688 -4.332031 3.546875 -3.78125 C 3.546875 -3.238281 3.539062 -2.816406 3.53125 -2.515625 C 3.519531 -2.148438 3.507812 -1.878906 3.5 -1.703125 C 3.488281 -1.585938 3.453125 -1.472656 3.390625 -1.359375 C 3.347656 -1.265625 3.273438 -1.160156 3.171875 -1.046875 C 3.066406 -0.929688 2.925781 -0.832031 2.75 -0.75 C 3.101562 -0.75 3.453125 -0.757812 3.796875 -0.78125 C 4.097656 -0.800781 4.414062 -0.832031 4.75 -0.875 C 5.082031 -0.914062 5.382812 -0.976562 5.65625 -1.0625 C 5.382812 -0.8125 5.109375 -0.613281 4.828125 -0.46875 C 4.546875 -0.320312 4.265625 -0.207031 3.984375 -0.125 C 3.703125 -0.0507812 3.425781 0 3.15625 0.03125 C 2.882812 0.0703125 2.628906 0.0976562 2.390625 0.109375 C 2.160156 0.117188 1.941406 0.128906 1.734375 0.140625 C 1.535156 0.160156 1.367188 0.1875 1.234375 0.21875 C 1.410156 0.0390625 1.550781 -0.132812 1.65625 -0.3125 C 1.757812 -0.488281 1.835938 -0.679688 1.890625 -0.890625 C 1.941406 -1.109375 1.972656 -1.351562 1.984375 -1.625 C 1.992188 -1.894531 2 -2.21875 2 -2.59375 L 2 -5.875 C 1.84375 -5.875 1.679688 -5.875 1.515625 -5.875 C 1.359375 -5.882812 1.195312 -5.894531 1.03125 -5.90625 L 2 -6.40625 C 2 -6.726562 1.992188 -7.070312 1.984375 -7.4375 C 1.984375 -7.800781 1.984375 -8.191406 1.984375 -8.609375 C 1.984375 -9.035156 1.984375 -9.488281 1.984375 -9.96875 C 1.984375 -10.457031 1.984375 -10.992188 1.984375 -11.578125 C 1.722656 -11.578125 1.472656 -11.578125 1.234375 -11.578125 C 1.003906 -11.585938 0.789062 -11.597656 0.59375 -11.609375 L 2.21875 -12.46875 C 3.320312 -12.46875 4.265625 -12.472656 5.046875 -12.484375 C 5.828125 -12.503906 6.472656 -12.523438 6.984375 -12.546875 C 7.578125 -12.566406 8.070312 -12.585938 8.46875 -12.609375 C 8.664062 -12.609375 8.796875 -12.59375 8.859375 -12.5625 C 8.921875 -12.53125 8.945312 -12.492188 8.9375 -12.453125 C 8.925781 -12.421875 8.890625 -12.382812 8.828125 -12.34375 C 8.773438 -12.300781 8.722656 -12.269531 8.671875 -12.25 C 8.628906 -12.226562 8.546875 -12.179688 8.421875 -12.109375 C 8.304688 -12.046875 8.144531 -11.941406 7.9375 -11.796875 C 7.738281 -11.660156 7.46875 -11.476562 7.125 -11.25 C 7.238281 -11.375 7.285156 -11.46875 7.265625 -11.53125 C 7.253906 -11.59375 7.21875 -11.640625 7.15625 -11.671875 C 7.070312 -11.703125 6.96875 -11.71875 6.84375 -11.71875 C 6.726562 -11.695312 6.5625 -11.679688 6.34375 -11.671875 C 6.125 -11.671875 5.863281 -11.664062 5.5625 -11.65625 C 5.269531 -11.644531 4.953125 -11.628906 4.609375 -11.609375 C 4.265625 -11.597656 3.914062 -11.59375 3.5625 -11.59375 C 3.570312 -10.582031 3.578125 -9.679688 3.578125 -8.890625 C 3.578125 -8.109375 3.578125 -7.394531 3.578125 -6.75 C 4.109375 -6.757812 4.585938 -6.769531 5.015625 -6.78125 C 5.453125 -6.789062 5.828125 -6.804688 6.140625 -6.828125 C 6.515625 -6.847656 6.847656 -6.867188 7.140625 -6.890625 C 7.335938 -6.898438 7.46875 -6.890625 7.53125 -6.859375 C 7.59375 -6.835938 7.617188 -6.804688 7.609375 -6.765625 C 7.597656 -6.722656 7.5625 -6.679688 7.5 -6.640625 C 7.445312 -6.597656 7.398438 -6.570312 7.359375 -6.5625 Z M 7.359375 -6.5625 "/></g></g></g><g fill="#0cc0df" fill-opacity="1"><g transform="translate(135.586811, 172.788166)"><g><path d="M 7.671875 -6.84375 C 7.617188 -6.8125 7.539062 -6.765625 7.4375 -6.703125 C 7.34375 -6.648438 7.207031 -6.566406 7.03125 -6.453125 C 6.863281 -6.335938 6.640625 -6.179688 6.359375 -5.984375 C 6.398438 -6.066406 6.394531 -6.128906 6.34375 -6.171875 C 6.300781 -6.222656 6.238281 -6.257812 6.15625 -6.28125 C 6.0625 -6.300781 5.945312 -6.3125 5.8125 -6.3125 C 5.601562 -6.289062 5.300781 -6.265625 4.90625 -6.234375 C 4.507812 -6.210938 4.066406 -6.195312 3.578125 -6.1875 C 3.578125 -5.25 3.570312 -4.488281 3.5625 -3.90625 C 3.550781 -3.320312 3.539062 -2.867188 3.53125 -2.546875 C 3.519531 -2.160156 3.507812 -1.878906 3.5 -1.703125 C 3.488281 -1.585938 3.453125 -1.472656 3.390625 -1.359375 C 3.347656 -1.265625 3.273438 -1.160156 3.171875 -1.046875 C 3.066406 -0.929688 2.925781 -0.832031 2.75 -0.75 L 6.703125 -0.75 C 6.878906 -0.75 7.066406 -0.757812 7.265625 -0.78125 C 7.429688 -0.800781 7.601562 -0.832031 7.78125 -0.875 C 7.96875 -0.914062 8.144531 -0.976562 8.3125 -1.0625 C 8.03125 -0.78125 7.742188 -0.566406 7.453125 -0.421875 C 7.171875 -0.273438 6.910156 -0.171875 6.671875 -0.109375 C 6.390625 -0.0351562 6.125 0.00390625 5.875 0.015625 C 5.300781 0.015625 4.757812 0.015625 4.25 0.015625 C 3.75 0.0234375 3.296875 0.0390625 2.890625 0.0625 C 2.484375 0.0820312 2.132812 0.101562 1.84375 0.125 C 1.5625 0.15625 1.359375 0.1875 1.234375 0.21875 C 1.410156 0.0390625 1.550781 -0.132812 1.65625 -0.3125 C 1.757812 -0.488281 1.835938 -0.679688 1.890625 -0.890625 C 1.941406 -1.109375 1.972656 -1.351562 1.984375 -1.625 C 1.992188 -1.894531 2 -2.21875 2 -2.59375 L 2 -6.171875 C 1.832031 -6.171875 1.664062 -6.171875 1.5 -6.171875 C 1.34375 -6.179688 1.1875 -6.191406 1.03125 -6.203125 L 2 -6.703125 C 2 -7.015625 1.992188 -7.34375 1.984375 -7.6875 C 1.984375 -8.03125 1.984375 -8.398438 1.984375 -8.796875 C 1.984375 -9.191406 1.984375 -9.617188 1.984375 -10.078125 C 1.984375 -10.535156 1.984375 -11.035156 1.984375 -11.578125 C 1.722656 -11.578125 1.472656 -11.578125 1.234375 -11.578125 C 1.003906 -11.585938 0.789062 -11.597656 0.59375 -11.609375 L 2.21875 -12.46875 C 3.320312 -12.46875 4.265625 -12.472656 5.046875 -12.484375 C 5.828125 -12.503906 6.472656 -12.523438 6.984375 -12.546875 C 7.578125 -12.566406 8.070312 -12.585938 8.46875 -12.609375 C 8.664062 -12.609375 8.796875 -12.59375 8.859375 -12.5625 C 8.921875 -12.53125 8.945312 -12.492188 8.9375 -12.453125 C 8.925781 -12.421875 8.890625 -12.382812 8.828125 -12.34375 C 8.773438 -12.300781 8.722656 -12.269531 8.671875 -12.25 C 8.628906 -12.226562 8.546875 -12.179688 8.421875 -12.109375 C 8.304688 -12.046875 8.144531 -11.941406 7.9375 -11.796875 C 7.738281 -11.660156 7.46875 -11.476562 7.125 -11.25 C 7.238281 -11.375 7.285156 -11.46875 7.265625 -11.53125 C 7.253906 -11.59375 7.21875 -11.640625 7.15625 -11.671875 C 7.070312 -11.703125 6.96875 -11.71875 6.84375 -11.71875 C 6.726562 -11.695312 6.5625 -11.679688 6.34375 -11.671875 C 6.125 -11.671875 5.863281 -11.664062 5.5625 -11.65625 C 5.269531 -11.644531 4.953125 -11.628906 4.609375 -11.609375 C 4.265625 -11.597656 3.914062 -11.59375 3.5625 -11.59375 C 3.5625 -10.65625 3.5625 -9.816406 3.5625 -9.078125 C 3.570312 -8.347656 3.578125 -7.675781 3.578125 -7.0625 C 4.171875 -7.0625 4.703125 -7.066406 5.171875 -7.078125 C 5.648438 -7.097656 6.054688 -7.117188 6.390625 -7.140625 C 6.785156 -7.160156 7.140625 -7.175781 7.453125 -7.1875 C 7.640625 -7.195312 7.765625 -7.1875 7.828125 -7.15625 C 7.890625 -7.125 7.914062 -7.085938 7.90625 -7.046875 C 7.894531 -7.015625 7.859375 -6.972656 7.796875 -6.921875 C 7.742188 -6.878906 7.703125 -6.851562 7.671875 -6.84375 Z M 7.671875 -6.84375 "/></g></g></g><g fill="#0cc0df" fill-opacity="1"><g transform="translate(146.056962, 172.788166)"><g><path d="M 15.046875 -1.09375 L 13.859375 0.328125 C 13.128906 -1.484375 12.453125 -3.285156 11.828125 -5.078125 C 11.203125 -6.867188 10.648438 -8.671875 10.171875 -10.484375 C 9.828125 -9.515625 9.476562 -8.546875 9.125 -7.578125 C 8.769531 -6.617188 8.390625 -5.679688 7.984375 -4.765625 C 7.585938 -3.847656 7.148438 -2.953125 6.671875 -2.078125 C 6.203125 -1.210938 5.675781 -0.382812 5.09375 0.40625 C 4.75 -0.601562 4.421875 -1.613281 4.109375 -2.625 C 3.804688 -3.632812 3.503906 -4.640625 3.203125 -5.640625 C 2.898438 -6.640625 2.585938 -7.628906 2.265625 -8.609375 C 1.953125 -9.585938 1.613281 -10.5625 1.25 -11.53125 C 1.164062 -11.539062 1.085938 -11.546875 1.015625 -11.546875 C 0.941406 -11.546875 0.863281 -11.546875 0.78125 -11.546875 C 0.625 -11.546875 0.460938 -11.539062 0.296875 -11.53125 C 0.140625 -11.53125 -0.00390625 -11.519531 -0.140625 -11.5 C 0.128906 -11.75 0.367188 -11.9375 0.578125 -12.0625 C 0.796875 -12.1875 0.984375 -12.28125 1.140625 -12.34375 C 1.304688 -12.414062 1.457031 -12.457031 1.59375 -12.46875 C 1.695312 -12.46875 1.832031 -12.46875 2 -12.46875 C 2.175781 -12.476562 2.359375 -12.484375 2.546875 -12.484375 C 2.734375 -12.492188 2.921875 -12.5 3.109375 -12.5 C 3.304688 -12.507812 3.488281 -12.519531 3.65625 -12.53125 C 3.820312 -12.539062 3.960938 -12.550781 4.078125 -12.5625 C 4.203125 -12.570312 4.285156 -12.582031 4.328125 -12.59375 C 4.109375 -12.445312 3.867188 -12.289062 3.609375 -12.125 C 3.359375 -11.957031 3.109375 -11.8125 2.859375 -11.6875 L 5.890625 -1.8125 C 6.035156 -2.0625 6.175781 -2.328125 6.3125 -2.609375 C 6.445312 -2.890625 6.582031 -3.175781 6.71875 -3.46875 C 6.863281 -3.769531 7 -4.066406 7.125 -4.359375 C 7.25 -4.648438 7.367188 -4.929688 7.484375 -5.203125 C 7.742188 -5.816406 7.992188 -6.441406 8.234375 -7.078125 C 8.460938 -7.691406 8.660156 -8.285156 8.828125 -8.859375 C 8.910156 -9.097656 8.984375 -9.34375 9.046875 -9.59375 C 9.117188 -9.851562 9.179688 -10.097656 9.234375 -10.328125 C 9.285156 -10.566406 9.328125 -10.789062 9.359375 -11 C 9.390625 -11.207031 9.398438 -11.382812 9.390625 -11.53125 C 9.316406 -11.539062 9.25 -11.546875 9.1875 -11.546875 C 9.125 -11.546875 9.054688 -11.546875 8.984375 -11.546875 C 8.816406 -11.546875 8.65625 -11.539062 8.5 -11.53125 C 8.34375 -11.53125 8.195312 -11.519531 8.0625 -11.5 C 8.332031 -11.75 8.570312 -11.9375 8.78125 -12.0625 C 9 -12.1875 9.1875 -12.28125 9.34375 -12.34375 C 9.507812 -12.414062 9.660156 -12.457031 9.796875 -12.46875 C 9.898438 -12.46875 10.035156 -12.46875 10.203125 -12.46875 C 10.367188 -12.476562 10.546875 -12.484375 10.734375 -12.484375 C 10.921875 -12.492188 11.113281 -12.5 11.3125 -12.5 C 11.507812 -12.507812 11.691406 -12.519531 11.859375 -12.53125 C 12.023438 -12.539062 12.164062 -12.550781 12.28125 -12.5625 C 12.40625 -12.570312 12.484375 -12.582031 12.515625 -12.59375 C 12.359375 -12.476562 12.179688 -12.351562 11.984375 -12.21875 C 11.785156 -12.09375 11.597656 -11.976562 11.421875 -11.875 C 11.691406 -10.9375 11.957031 -10.023438 12.21875 -9.140625 C 12.476562 -8.253906 12.742188 -7.382812 13.015625 -6.53125 C 13.285156 -5.6875 13.566406 -4.859375 13.859375 -4.046875 C 14.160156 -3.234375 14.476562 -2.4375 14.8125 -1.65625 C 14.957031 -1.988281 15.101562 -2.328125 15.25 -2.671875 C 15.394531 -3.015625 15.535156 -3.347656 15.671875 -3.671875 C 15.816406 -4.003906 15.953125 -4.328125 16.078125 -4.640625 C 16.203125 -4.953125 16.316406 -5.242188 16.421875 -5.515625 C 16.679688 -6.160156 16.921875 -6.78125 17.140625 -7.375 C 17.316406 -7.875 17.476562 -8.363281 17.625 -8.84375 C 17.6875 -9.039062 17.742188 -9.25 17.796875 -9.46875 C 17.859375 -9.6875 17.910156 -9.898438 17.953125 -10.109375 C 18.003906 -10.316406 18.039062 -10.519531 18.0625 -10.71875 C 18.09375 -10.914062 18.109375 -11.09375 18.109375 -11.25 C 18.109375 -11.3125 18.109375 -11.363281 18.109375 -11.40625 C 18.109375 -11.445312 18.101562 -11.488281 18.09375 -11.53125 C 17.976562 -11.53125 17.863281 -11.53125 17.75 -11.53125 C 17.644531 -11.539062 17.539062 -11.546875 17.4375 -11.546875 C 17.269531 -11.546875 17.101562 -11.539062 16.9375 -11.53125 C 16.78125 -11.53125 16.632812 -11.519531 16.5 -11.5 C 16.769531 -11.75 17.007812 -11.9375 17.21875 -12.0625 C 17.4375 -12.1875 17.617188 -12.28125 17.765625 -12.34375 C 17.941406 -12.414062 18.097656 -12.457031 18.234375 -12.46875 C 18.347656 -12.46875 18.488281 -12.46875 18.65625 -12.46875 C 18.820312 -12.476562 19 -12.484375 19.1875 -12.484375 C 19.375 -12.492188 19.566406 -12.5 19.765625 -12.5 C 19.960938 -12.507812 20.140625 -12.519531 20.296875 -12.53125 C 20.460938 -12.539062 20.601562 -12.550781 20.71875 -12.5625 C 20.84375 -12.570312 20.925781 -12.582031 20.96875 -12.59375 C 20.832031 -12.507812 20.6875 -12.414062 20.53125 -12.3125 C 20.382812 -12.21875 20.234375 -12.125 20.078125 -12.03125 C 19.929688 -11.9375 19.78125 -11.847656 19.625 -11.765625 C 19.476562 -11.691406 19.335938 -11.628906 19.203125 -11.578125 C 18.671875 -9.722656 18.050781 -7.9375 17.34375 -6.21875 C 16.632812 -4.507812 15.859375 -2.820312 15.015625 -1.15625 C 15.015625 -1.132812 15.023438 -1.113281 15.046875 -1.09375 Z M 15.046875 -1.09375 "/></g></g></g><g fill="#0cc0df" fill-opacity="1"><g transform="translate(167.593299, 172.788166)"><g><path d="M 3.484375 -0.90625 C 3.171875 -0.726562 2.875 -0.582031 2.59375 -0.46875 C 2.3125 -0.351562 2.046875 -0.257812 1.796875 -0.1875 C 1.554688 -0.125 1.335938 -0.078125 1.140625 -0.046875 C 0.953125 -0.015625 0.785156 0 0.640625 0 L -0.65625 0 L 0.28125 -0.53125 C 0.382812 -0.65625 0.484375 -0.78125 0.578125 -0.90625 C 0.671875 -1.039062 0.75 -1.160156 0.8125 -1.265625 C 0.882812 -1.390625 0.953125 -1.515625 1.015625 -1.640625 C 1.203125 -2.003906 1.472656 -2.597656 1.828125 -3.421875 C 1.972656 -3.765625 2.144531 -4.175781 2.34375 -4.65625 C 2.539062 -5.144531 2.769531 -5.707031 3.03125 -6.34375 C 3.289062 -6.988281 3.582031 -7.71875 3.90625 -8.53125 C 4.226562 -9.34375 4.585938 -10.253906 4.984375 -11.265625 L 6.5 -12.65625 L 9.921875 -1.078125 C 10.160156 -1.015625 10.390625 -0.972656 10.609375 -0.953125 C 10.835938 -0.929688 11.050781 -0.921875 11.25 -0.921875 C 11.351562 -0.921875 11.445312 -0.921875 11.53125 -0.921875 C 11.625 -0.929688 11.703125 -0.9375 11.765625 -0.9375 C 11.835938 -0.945312 11.90625 -0.957031 11.96875 -0.96875 C 11.625 -0.800781 11.328125 -0.65625 11.078125 -0.53125 C 10.828125 -0.414062 10.601562 -0.316406 10.40625 -0.234375 C 10.21875 -0.160156 10.039062 -0.101562 9.875 -0.0625 C 9.707031 -0.0195312 9.539062 0 9.375 0 L 7.984375 0 L 8.4375 -0.28125 L 7.03125 -4.90625 C 6.863281 -4.863281 6.671875 -4.816406 6.453125 -4.765625 C 6.234375 -4.722656 5.96875 -4.6875 5.65625 -4.65625 C 5.351562 -4.625 5 -4.59375 4.59375 -4.5625 C 4.195312 -4.53125 3.734375 -4.503906 3.203125 -4.484375 C 2.953125 -3.960938 2.722656 -3.5 2.515625 -3.09375 C 2.316406 -2.695312 2.132812 -2.347656 1.96875 -2.046875 C 1.8125 -1.753906 1.671875 -1.503906 1.546875 -1.296875 C 1.421875 -1.097656 1.316406 -0.9375 1.234375 -0.8125 C 1.328125 -0.800781 1.4375 -0.789062 1.5625 -0.78125 C 1.6875 -0.769531 1.804688 -0.765625 1.921875 -0.765625 C 2.109375 -0.765625 2.289062 -0.769531 2.46875 -0.78125 C 2.65625 -0.800781 2.828125 -0.820312 2.984375 -0.84375 C 3.160156 -0.863281 3.328125 -0.882812 3.484375 -0.90625 Z M 4.703125 -5.515625 C 5.484375 -5.515625 6.195312 -5.535156 6.84375 -5.578125 L 5.5 -10 C 5.144531 -9.070312 4.816406 -8.242188 4.515625 -7.515625 C 4.210938 -6.796875 3.925781 -6.128906 3.65625 -5.515625 Z M 4.703125 -5.515625 "/></g></g></g><g fill="#0cc0df" fill-opacity="1"><g transform="translate(180.34819, 172.788166)"><g/></g></g><g fill="#000000" fill-opacity="1"><g transform="translate(186.136165, 172.788166)"><g><path d="M 8.296875 -3.6875 C 8.296875 -3.382812 8.195312 -3.078125 8 -2.765625 C 7.8125 -2.453125 7.5625 -2.144531 7.25 -1.84375 C 6.945312 -1.550781 6.601562 -1.273438 6.21875 -1.015625 C 5.832031 -0.753906 5.441406 -0.523438 5.046875 -0.328125 C 4.648438 -0.128906 4.269531 0.0234375 3.90625 0.140625 C 3.550781 0.265625 3.25 0.332031 3 0.34375 C 2.757812 0.351562 2.503906 0.332031 2.234375 0.28125 C 1.960938 0.226562 1.703125 0.160156 1.453125 0.078125 C 1.203125 0.00390625 0.976562 -0.078125 0.78125 -0.171875 C 0.59375 -0.265625 0.460938 -0.34375 0.390625 -0.40625 C 0.347656 -0.457031 0.3125 -0.507812 0.28125 -0.5625 C 0.257812 -0.613281 0.25 -0.671875 0.25 -0.734375 C 0.25 -0.804688 0.265625 -0.878906 0.296875 -0.953125 C 0.335938 -1.023438 0.40625 -1.097656 0.5 -1.171875 C 0.582031 -1.234375 0.679688 -1.316406 0.796875 -1.421875 C 0.898438 -1.503906 1.035156 -1.609375 1.203125 -1.734375 C 1.367188 -1.867188 1.570312 -2.03125 1.8125 -2.21875 C 1.71875 -2.125 1.660156 -2.039062 1.640625 -1.96875 C 1.617188 -1.894531 1.609375 -1.828125 1.609375 -1.765625 C 1.617188 -1.691406 1.644531 -1.625 1.6875 -1.5625 C 1.738281 -1.488281 1.835938 -1.40625 1.984375 -1.3125 C 2.128906 -1.21875 2.304688 -1.128906 2.515625 -1.046875 C 2.722656 -0.972656 2.953125 -0.910156 3.203125 -0.859375 C 3.460938 -0.804688 3.734375 -0.78125 4.015625 -0.78125 C 4.359375 -0.78125 4.695312 -0.8125 5.03125 -0.875 C 5.375 -0.945312 5.679688 -1.0625 5.953125 -1.21875 C 6.222656 -1.375 6.441406 -1.582031 6.609375 -1.84375 C 6.773438 -2.101562 6.859375 -2.425781 6.859375 -2.8125 C 6.859375 -3.164062 6.773438 -3.476562 6.609375 -3.75 C 6.441406 -4.019531 6.222656 -4.257812 5.953125 -4.46875 C 5.691406 -4.6875 5.382812 -4.882812 5.03125 -5.0625 C 4.6875 -5.238281 4.332031 -5.410156 3.96875 -5.578125 C 3.613281 -5.753906 3.265625 -5.929688 2.921875 -6.109375 C 2.578125 -6.296875 2.269531 -6.5 2 -6.71875 C 1.738281 -6.945312 1.523438 -7.203125 1.359375 -7.484375 C 1.191406 -7.765625 1.109375 -8.09375 1.109375 -8.46875 C 1.109375 -8.832031 1.195312 -9.1875 1.375 -9.53125 C 1.550781 -9.875 1.785156 -10.195312 2.078125 -10.5 C 2.367188 -10.8125 2.703125 -11.097656 3.078125 -11.359375 C 3.453125 -11.617188 3.835938 -11.84375 4.234375 -12.03125 C 4.628906 -12.21875 5.015625 -12.363281 5.390625 -12.46875 C 5.773438 -12.582031 6.117188 -12.640625 6.421875 -12.640625 C 6.722656 -12.648438 7.007812 -12.640625 7.28125 -12.609375 C 7.550781 -12.578125 7.78125 -12.523438 7.96875 -12.453125 C 8.15625 -12.390625 8.28125 -12.3125 8.34375 -12.21875 C 8.414062 -12.125 8.398438 -12.015625 8.296875 -11.890625 C 8.210938 -11.796875 8.109375 -11.691406 7.984375 -11.578125 C 7.867188 -11.484375 7.722656 -11.375 7.546875 -11.25 C 7.378906 -11.125 7.175781 -10.992188 6.9375 -10.859375 C 6.976562 -10.929688 7 -10.992188 7 -11.046875 C 7.007812 -11.097656 7.007812 -11.140625 7 -11.171875 C 6.976562 -11.210938 6.957031 -11.25 6.9375 -11.28125 C 6.894531 -11.320312 6.820312 -11.359375 6.71875 -11.390625 C 6.613281 -11.429688 6.484375 -11.472656 6.328125 -11.515625 C 6.179688 -11.554688 6.007812 -11.585938 5.8125 -11.609375 C 5.625 -11.640625 5.425781 -11.65625 5.21875 -11.65625 C 4.863281 -11.65625 4.523438 -11.613281 4.203125 -11.53125 C 3.878906 -11.445312 3.59375 -11.316406 3.34375 -11.140625 C 3.101562 -10.972656 2.90625 -10.753906 2.75 -10.484375 C 2.601562 -10.210938 2.53125 -9.898438 2.53125 -9.546875 C 2.53125 -9.148438 2.613281 -8.800781 2.78125 -8.5 C 2.945312 -8.207031 3.164062 -7.945312 3.4375 -7.71875 C 3.707031 -7.488281 4.015625 -7.28125 4.359375 -7.09375 C 4.710938 -6.90625 5.066406 -6.722656 5.421875 -6.546875 C 5.773438 -6.378906 6.125 -6.203125 6.46875 -6.015625 C 6.820312 -5.835938 7.132812 -5.640625 7.40625 -5.421875 C 7.675781 -5.203125 7.890625 -4.953125 8.046875 -4.671875 C 8.210938 -4.390625 8.296875 -4.0625 8.296875 -3.6875 Z M 8.296875 -3.6875 "/></g></g></g><g fill="#000000" fill-opacity="1"><g transform="translate(196.458069, 172.788166)"><g><path d="M 11.078125 -12.1875 C 11.015625 -12.144531 10.914062 -12.085938 10.78125 -12.015625 C 10.664062 -11.953125 10.503906 -11.859375 10.296875 -11.734375 C 10.097656 -11.617188 9.835938 -11.46875 9.515625 -11.28125 C 9.617188 -11.40625 9.664062 -11.492188 9.65625 -11.546875 C 9.644531 -11.609375 9.617188 -11.648438 9.578125 -11.671875 C 9.515625 -11.691406 9.4375 -11.691406 9.34375 -11.671875 C 9.28125 -11.660156 9.148438 -11.644531 8.953125 -11.625 C 8.765625 -11.613281 8.523438 -11.601562 8.234375 -11.59375 C 7.953125 -11.582031 7.628906 -11.570312 7.265625 -11.5625 C 6.898438 -11.550781 6.515625 -11.539062 6.109375 -11.53125 C 6.078125 -10.5625 6.050781 -9.691406 6.03125 -8.921875 C 6.019531 -8.160156 6.003906 -7.484375 5.984375 -6.890625 C 5.972656 -6.296875 5.960938 -5.78125 5.953125 -5.34375 C 5.953125 -4.90625 5.945312 -4.535156 5.9375 -4.234375 C 5.914062 -3.503906 5.90625 -3.003906 5.90625 -2.734375 C 5.90625 -2.515625 5.878906 -2.300781 5.828125 -2.09375 C 5.773438 -1.914062 5.703125 -1.722656 5.609375 -1.515625 C 5.515625 -1.304688 5.382812 -1.117188 5.21875 -0.953125 C 5.320312 -0.941406 5.421875 -0.929688 5.515625 -0.921875 C 5.617188 -0.921875 5.722656 -0.921875 5.828125 -0.921875 C 6.097656 -0.921875 6.34375 -0.929688 6.5625 -0.953125 C 6.78125 -0.984375 6.96875 -1.015625 7.125 -1.046875 C 7.28125 -1.078125 7.40625 -1.101562 7.5 -1.125 C 7.59375 -1.15625 7.65625 -1.175781 7.6875 -1.1875 C 7.375 -0.976562 7.113281 -0.796875 6.90625 -0.640625 C 6.707031 -0.492188 6.523438 -0.375 6.359375 -0.28125 C 6.203125 -0.1875 6.046875 -0.113281 5.890625 -0.0625 C 5.734375 -0.0195312 5.550781 0 5.34375 0 C 5.0625 0 4.820312 -0.0078125 4.625 -0.03125 C 4.425781 -0.0507812 4.226562 -0.0625 4.03125 -0.0625 C 3.9375 -0.0625 3.835938 -0.0546875 3.734375 -0.046875 C 3.628906 -0.046875 3.515625 -0.03125 3.390625 0 C 3.554688 -0.132812 3.707031 -0.285156 3.84375 -0.453125 C 3.976562 -0.617188 4.09375 -0.820312 4.1875 -1.0625 C 4.28125 -1.300781 4.351562 -1.585938 4.40625 -1.921875 C 4.457031 -2.253906 4.484375 -2.65625 4.484375 -3.125 L 4.484375 -11.484375 C 3.972656 -11.472656 3.472656 -11.460938 2.984375 -11.453125 C 2.503906 -11.441406 2.066406 -11.429688 1.671875 -11.421875 C 1.285156 -11.410156 0.960938 -11.398438 0.703125 -11.390625 C 0.441406 -11.378906 0.273438 -11.367188 0.203125 -11.359375 C 0.0351562 -11.347656 -0.078125 -11.351562 -0.140625 -11.375 C -0.210938 -11.40625 -0.242188 -11.453125 -0.234375 -11.515625 C -0.234375 -11.578125 -0.191406 -11.648438 -0.109375 -11.734375 C -0.0351562 -11.828125 0.0664062 -11.921875 0.203125 -12.015625 L 1.390625 -12.875 C 1.304688 -12.769531 1.28125 -12.691406 1.3125 -12.640625 C 1.34375 -12.585938 1.394531 -12.546875 1.46875 -12.515625 C 1.550781 -12.492188 1.65625 -12.476562 1.78125 -12.46875 C 1.875 -12.46875 2.0625 -12.46875 2.34375 -12.46875 C 2.632812 -12.476562 2.984375 -12.488281 3.390625 -12.5 C 3.804688 -12.507812 4.265625 -12.519531 4.765625 -12.53125 C 5.265625 -12.539062 5.769531 -12.550781 6.28125 -12.5625 C 6.800781 -12.570312 7.3125 -12.582031 7.8125 -12.59375 C 8.3125 -12.613281 8.765625 -12.625 9.171875 -12.625 C 9.585938 -12.632812 9.9375 -12.644531 10.21875 -12.65625 C 10.5 -12.664062 10.6875 -12.671875 10.78125 -12.671875 C 10.96875 -12.679688 11.097656 -12.664062 11.171875 -12.625 C 11.253906 -12.59375 11.300781 -12.546875 11.3125 -12.484375 C 11.320312 -12.429688 11.300781 -12.375 11.25 -12.3125 C 11.195312 -12.257812 11.140625 -12.21875 11.078125 -12.1875 Z M 7.6875 -1.1875 L 7.6875 -1.203125 C 7.6875 -1.210938 7.691406 -1.21875 7.703125 -1.21875 Z M 7.6875 -1.1875 "/></g></g></g><g fill="#000000" fill-opacity="1"><g transform="translate(208.689739, 172.788166)"><g><path d="M 4.96875 -12.59375 C 4.726562 -12.425781 4.46875 -12.253906 4.1875 -12.078125 C 3.90625 -11.898438 3.632812 -11.753906 3.375 -11.640625 C 3.351562 -10.898438 3.332031 -10.222656 3.3125 -9.609375 C 3.300781 -8.992188 3.285156 -8.441406 3.265625 -7.953125 C 3.253906 -7.460938 3.242188 -7.03125 3.234375 -6.65625 C 3.234375 -6.28125 3.226562 -5.945312 3.21875 -5.65625 C 3.207031 -5 3.207031 -4.492188 3.21875 -4.140625 C 3.207031 -3.722656 3.265625 -3.320312 3.390625 -2.9375 C 3.515625 -2.550781 3.722656 -2.203125 4.015625 -1.890625 C 4.304688 -1.585938 4.679688 -1.34375 5.140625 -1.15625 C 5.609375 -0.96875 6.175781 -0.875 6.84375 -0.875 C 7.195312 -0.882812 7.570312 -0.9375 7.96875 -1.03125 C 8.289062 -1.113281 8.648438 -1.234375 9.046875 -1.390625 C 9.453125 -1.554688 9.847656 -1.796875 10.234375 -2.109375 L 10.234375 -11.53125 C 10.148438 -11.539062 10.066406 -11.546875 9.984375 -11.546875 C 9.898438 -11.546875 9.816406 -11.546875 9.734375 -11.546875 C 9.566406 -11.546875 9.40625 -11.539062 9.25 -11.53125 C 9.09375 -11.53125 8.945312 -11.519531 8.8125 -11.5 C 9.082031 -11.75 9.320312 -11.9375 9.53125 -12.0625 C 9.75 -12.1875 9.929688 -12.28125 10.078125 -12.34375 C 10.253906 -12.414062 10.40625 -12.457031 10.53125 -12.46875 C 10.644531 -12.46875 10.785156 -12.46875 10.953125 -12.46875 C 11.117188 -12.476562 11.296875 -12.484375 11.484375 -12.484375 C 11.671875 -12.492188 11.863281 -12.5 12.0625 -12.5 C 12.257812 -12.507812 12.441406 -12.519531 12.609375 -12.53125 C 12.773438 -12.539062 12.914062 -12.550781 13.03125 -12.5625 C 13.15625 -12.570312 13.234375 -12.582031 13.265625 -12.59375 C 13.066406 -12.445312 12.835938 -12.289062 12.578125 -12.125 C 12.328125 -11.96875 12.085938 -11.835938 11.859375 -11.734375 L 11.859375 -2.75 C 11.847656 -2.457031 11.832031 -2.191406 11.8125 -1.953125 C 11.78125 -1.742188 11.738281 -1.535156 11.6875 -1.328125 C 11.632812 -1.128906 11.5625 -0.992188 11.46875 -0.921875 C 11.789062 -0.878906 12.078125 -0.847656 12.328125 -0.828125 C 12.578125 -0.816406 12.796875 -0.8125 12.984375 -0.8125 C 13.316406 -0.8125 13.554688 -0.820312 13.703125 -0.84375 C 13.847656 -0.875 13.925781 -0.894531 13.9375 -0.90625 C 13.664062 -0.75 13.414062 -0.613281 13.1875 -0.5 C 12.96875 -0.382812 12.753906 -0.289062 12.546875 -0.21875 C 12.347656 -0.144531 12.15625 -0.0859375 11.96875 -0.046875 C 11.78125 -0.015625 11.585938 0 11.390625 0 L 9.703125 0 C 9.828125 -0.0390625 9.925781 -0.140625 10 -0.296875 C 10.070312 -0.460938 10.128906 -0.628906 10.171875 -0.796875 C 10.210938 -0.984375 10.234375 -1.195312 10.234375 -1.4375 L 10.234375 -1.84375 C 9.617188 -1.34375 9.03125 -0.957031 8.46875 -0.6875 C 7.914062 -0.414062 7.421875 -0.222656 6.984375 -0.109375 C 6.472656 0.0351562 6 0.117188 5.5625 0.140625 C 4.820312 0.140625 4.203125 0.046875 3.703125 -0.140625 C 3.210938 -0.335938 2.816406 -0.609375 2.515625 -0.953125 C 2.210938 -1.304688 2 -1.726562 1.875 -2.21875 C 1.75 -2.707031 1.695312 -3.25 1.71875 -3.84375 C 1.707031 -4.320312 1.710938 -4.925781 1.734375 -5.65625 C 1.734375 -6.28125 1.738281 -7.078125 1.75 -8.046875 C 1.769531 -9.015625 1.796875 -10.179688 1.828125 -11.546875 L 1.4375 -11.546875 C 1.269531 -11.546875 1.101562 -11.539062 0.9375 -11.53125 C 0.78125 -11.53125 0.632812 -11.519531 0.5 -11.5 C 0.769531 -11.75 1.007812 -11.9375 1.21875 -12.0625 C 1.4375 -12.1875 1.617188 -12.28125 1.765625 -12.34375 C 1.941406 -12.414062 2.097656 -12.457031 2.234375 -12.46875 C 2.335938 -12.46875 2.472656 -12.46875 2.640625 -12.46875 C 2.816406 -12.476562 3 -12.484375 3.1875 -12.484375 C 3.375 -12.492188 3.566406 -12.5 3.765625 -12.5 C 3.960938 -12.507812 4.140625 -12.519531 4.296875 -12.53125 C 4.460938 -12.539062 4.601562 -12.550781 4.71875 -12.5625 C 4.84375 -12.570312 4.925781 -12.582031 4.96875 -12.59375 Z M 13.9375 -0.90625 L 13.9375 -0.921875 L 13.953125 -0.921875 C 13.960938 -0.921875 13.96875 -0.921875 13.96875 -0.921875 Z M 13.9375 -0.90625 "/></g></g></g><g fill="#000000" fill-opacity="1"><g transform="translate(223.886345, 172.788166)"><g><path d="M 12.734375 -7 C 12.734375 -6.28125 12.613281 -5.609375 12.375 -4.984375 C 12.132812 -4.359375 11.804688 -3.785156 11.390625 -3.265625 C 10.984375 -2.742188 10.503906 -2.28125 9.953125 -1.875 C 9.410156 -1.46875 8.832031 -1.125 8.21875 -0.84375 C 7.601562 -0.570312 6.972656 -0.363281 6.328125 -0.21875 C 5.691406 -0.0703125 5.070312 0 4.46875 0 C 4.40625 0.0078125 4.296875 0.015625 4.140625 0.015625 C 3.992188 0.015625 3.816406 0.015625 3.609375 0.015625 C 3.410156 0.015625 3.191406 0.015625 2.953125 0.015625 C 2.710938 0.015625 2.476562 0.015625 2.25 0.015625 C 2.019531 0.015625 1.804688 0.015625 1.609375 0.015625 C 1.410156 0.015625 1.25 0.0078125 1.125 0 C 1.21875 0 1.300781 -0.0234375 1.375 -0.078125 C 1.457031 -0.128906 1.523438 -0.195312 1.578125 -0.28125 C 1.640625 -0.375 1.6875 -0.476562 1.71875 -0.59375 C 1.757812 -0.707031 1.796875 -0.820312 1.828125 -0.9375 C 1.878906 -1.21875 1.910156 -1.53125 1.921875 -1.875 C 1.921875 -2.300781 1.925781 -2.941406 1.9375 -3.796875 C 1.945312 -4.148438 1.953125 -4.570312 1.953125 -5.0625 C 1.960938 -5.5625 1.972656 -6.128906 1.984375 -6.765625 C 1.992188 -7.398438 2.003906 -8.113281 2.015625 -8.90625 C 2.035156 -9.707031 2.054688 -10.597656 2.078125 -11.578125 C 1.816406 -11.546875 1.5625 -11.519531 1.3125 -11.5 C 1.0625 -11.488281 0.796875 -11.488281 0.515625 -11.5 L 2.140625 -12.578125 C 2.410156 -12.535156 2.6875 -12.507812 2.96875 -12.5 C 3.257812 -12.488281 3.539062 -12.484375 3.8125 -12.484375 C 4.332031 -12.484375 4.804688 -12.503906 5.234375 -12.546875 C 5.671875 -12.585938 6.097656 -12.609375 6.515625 -12.609375 C 6.898438 -12.609375 7.320312 -12.578125 7.78125 -12.515625 C 8.238281 -12.453125 8.695312 -12.34375 9.15625 -12.1875 C 9.613281 -12.03125 10.054688 -11.816406 10.484375 -11.546875 C 10.921875 -11.273438 11.300781 -10.929688 11.625 -10.515625 C 11.957031 -10.097656 12.222656 -9.597656 12.421875 -9.015625 C 12.628906 -8.441406 12.734375 -7.769531 12.734375 -7 Z M 3.390625 -2.40625 C 3.367188 -2.226562 3.332031 -2.054688 3.28125 -1.890625 C 3.226562 -1.742188 3.15625 -1.585938 3.0625 -1.421875 C 2.976562 -1.253906 2.863281 -1.113281 2.71875 -1 C 3.519531 -0.957031 4.179688 -0.929688 4.703125 -0.921875 C 5.234375 -0.910156 5.65625 -0.90625 5.96875 -0.90625 C 6.769531 -0.90625 7.488281 -1.046875 8.125 -1.328125 C 8.769531 -1.617188 9.3125 -2.007812 9.75 -2.5 C 10.195312 -3 10.535156 -3.570312 10.765625 -4.21875 C 11.003906 -4.875 11.125 -5.5625 11.125 -6.28125 C 11.125 -7 11.03125 -7.632812 10.84375 -8.1875 C 10.65625 -8.75 10.40625 -9.234375 10.09375 -9.640625 C 9.78125 -10.054688 9.421875 -10.40625 9.015625 -10.6875 C 8.617188 -10.976562 8.207031 -11.210938 7.78125 -11.390625 C 7.363281 -11.566406 6.945312 -11.691406 6.53125 -11.765625 C 6.113281 -11.847656 5.742188 -11.890625 5.421875 -11.890625 C 5.078125 -11.890625 4.753906 -11.878906 4.453125 -11.859375 C 4.160156 -11.835938 3.875 -11.804688 3.59375 -11.765625 C 3.570312 -10.710938 3.550781 -9.769531 3.53125 -8.9375 C 3.519531 -8.113281 3.507812 -7.382812 3.5 -6.75 C 3.488281 -6.113281 3.476562 -5.5625 3.46875 -5.09375 C 3.457031 -4.632812 3.445312 -4.242188 3.4375 -3.921875 C 3.414062 -3.171875 3.398438 -2.664062 3.390625 -2.40625 Z M 3.390625 -2.40625 "/></g></g></g><g fill="#000000" fill-opacity="1"><g transform="translate(238.62077, 172.788166)"><g><path d="M 8.453125 -0.984375 C 8.128906 -0.773438 7.816406 -0.601562 7.515625 -0.46875 C 7.222656 -0.332031 6.910156 -0.222656 6.578125 -0.140625 C 6.242188 -0.0664062 5.878906 -0.015625 5.484375 0.015625 C 5.097656 0.046875 4.65625 0.0625 4.15625 0.0625 C 4.257812 -0.0078125 4.335938 -0.0820312 4.390625 -0.15625 C 4.453125 -0.238281 4.5 -0.332031 4.53125 -0.4375 C 4.570312 -0.539062 4.597656 -0.660156 4.609375 -0.796875 C 4.628906 -0.941406 4.648438 -1.113281 4.671875 -1.3125 C 4.671875 -1.476562 4.675781 -1.734375 4.6875 -2.078125 C 4.695312 -2.367188 4.707031 -2.765625 4.71875 -3.265625 C 4.738281 -3.765625 4.769531 -4.40625 4.8125 -5.1875 C 4.175781 -6.289062 3.632812 -7.222656 3.1875 -7.984375 C 2.738281 -8.742188 2.363281 -9.367188 2.0625 -9.859375 C 1.757812 -10.359375 1.523438 -10.738281 1.359375 -11 C 1.191406 -11.257812 1.066406 -11.453125 0.984375 -11.578125 C 0.816406 -11.554688 0.613281 -11.53125 0.375 -11.5 C 0.144531 -11.46875 -0.109375 -11.425781 -0.390625 -11.375 C -0.078125 -11.664062 0.203125 -11.882812 0.453125 -12.03125 C 0.703125 -12.1875 0.914062 -12.300781 1.09375 -12.375 C 1.300781 -12.457031 1.488281 -12.5 1.65625 -12.5 C 1.863281 -12.5 2.085938 -12.503906 2.328125 -12.515625 C 2.578125 -12.523438 2.816406 -12.539062 3.046875 -12.5625 C 3.285156 -12.59375 3.5 -12.625 3.6875 -12.65625 C 3.875 -12.6875 4.015625 -12.722656 4.109375 -12.765625 C 3.859375 -12.566406 3.628906 -12.40625 3.421875 -12.28125 C 3.210938 -12.15625 3.007812 -12.046875 2.8125 -11.953125 L 6.09375 -6.5 C 6.539062 -7.238281 6.921875 -7.894531 7.234375 -8.46875 C 7.546875 -9.039062 7.800781 -9.535156 8 -9.953125 C 8.207031 -10.378906 8.359375 -10.726562 8.453125 -11 C 8.554688 -11.269531 8.628906 -11.472656 8.671875 -11.609375 C 8.503906 -11.597656 8.269531 -11.582031 7.96875 -11.5625 C 7.675781 -11.539062 7.332031 -11.503906 6.9375 -11.453125 C 7.175781 -11.648438 7.394531 -11.8125 7.59375 -11.9375 C 7.800781 -12.070312 8.003906 -12.179688 8.203125 -12.265625 C 8.398438 -12.347656 8.601562 -12.40625 8.8125 -12.4375 C 9.03125 -12.476562 9.28125 -12.5 9.5625 -12.5 C 9.75 -12.5 9.9375 -12.503906 10.125 -12.515625 C 10.320312 -12.523438 10.503906 -12.535156 10.671875 -12.546875 C 10.847656 -12.566406 11.003906 -12.585938 11.140625 -12.609375 C 11.285156 -12.640625 11.398438 -12.671875 11.484375 -12.703125 C 11.117188 -12.429688 10.796875 -12.222656 10.515625 -12.078125 C 10.234375 -11.929688 9.960938 -11.820312 9.703125 -11.75 C 9.359375 -11 9.015625 -10.304688 8.671875 -9.671875 C 8.328125 -9.046875 8 -8.488281 7.6875 -8 C 7.382812 -7.507812 7.101562 -7.09375 6.84375 -6.75 C 6.59375 -6.414062 6.394531 -6.15625 6.25 -5.96875 C 6.238281 -5.445312 6.226562 -4.976562 6.21875 -4.5625 C 6.207031 -4.15625 6.195312 -3.796875 6.1875 -3.484375 C 6.175781 -3.171875 6.164062 -2.898438 6.15625 -2.671875 C 6.15625 -2.453125 6.15625 -2.265625 6.15625 -2.109375 C 6.144531 -1.742188 6.140625 -1.5 6.140625 -1.375 C 6.140625 -1.300781 6.132812 -1.234375 6.125 -1.171875 C 6.113281 -1.109375 6.085938 -1.039062 6.046875 -0.96875 C 6.015625 -0.90625 5.96875 -0.847656 5.90625 -0.796875 C 6.03125 -0.785156 6.144531 -0.78125 6.25 -0.78125 C 6.351562 -0.78125 6.457031 -0.78125 6.5625 -0.78125 C 6.894531 -0.78125 7.179688 -0.789062 7.421875 -0.8125 C 7.660156 -0.832031 7.859375 -0.851562 8.015625 -0.875 C 8.191406 -0.90625 8.335938 -0.941406 8.453125 -0.984375 Z M 8.453125 -0.984375 "/></g></g></g></svg>